<?xml version="1.0" encoding="iso-8859-1"?>
<!-- Generator: Adobe Illustrator 22.0.1, SVG Export Plug-In . SVG Version: 6.00 Build 0)  -->
<svg version="1.1" id="Layer_1" xmlns="http://www.w3.org/2000/svg" xmlns:xlink="http://www.w3.org/1999/xlink" x="0px" y="0px"
	 width="1400px" height="980px" viewBox="0 0 1400 980" enable-background="new 0 0 1400 980" xml:space="preserve">
<rect y="0.154" fill="#FFFFEE" width="1400" height="980"/>
<g>
	<polygon fill="#E0D5C8" points="0,398.553 0,659.413 170.797,481.048 	"/>
	<polygon fill="#E6D2C5" points="0,393 2.175,388.498 175.54,472.233 170.115,372.026 0,211.868 	"/>
	<polygon fill="#DAD7CC" points="399.953,591.731 180.101,485.542 3.611,670.101 0,666.643 0,723.735 	"/>
	<polygon fill="#F9CBBA" points="293.969,0.868 251.91,374.796 524.925,0.154 287.628,0.154 	"/>
	<polygon fill="#F3CDBD" points="185.217,465.989 186.21,464.952 240.01,391.125 283.986,0.154 159.999,0.154 	"/>
	<polygon fill="#D4DACF" points="1.044,780.11 546.218,896.55 312.893,630.995 1.567,733.748 0,729 0,785 	"/>
	<polygon fill="#FFC8B6" points="631.285,0.154 530.788,0.154 535.041,3.253 189.928,476.829 	"/>
	<polygon fill="#BBE4DE" points="1203.503,979.846 643.203,709.221 1023.869,975.905 1021.108,979.846 	"/>
	<polygon fill="#FFEBCA" points="0,979.846 0,979.846 0,979.846 	"/>
	<polygon fill="#CEDCD3" points="0,790.113 0,974.585 341.181,862.982 	"/>
	<polygon fill="#FFEBCA" points="1215,979.846 1215,979.846 1215,979.846 	"/>
	<polygon fill="#ECD0C1" points="3.428,201.359 169.332,357.552 150.008,0.579 157.847,0.154 0,0.154 0,205 	"/>
	<polygon fill="#C7DFD7" points="888.34,979.846 360.641,867.139 16.083,979.846 	"/>
	<polygon fill="#FFEBCA" points="638.208,0.154 638.208,0.154 638.208,0.154 	"/>
	<polygon fill="#C1E1DA" points="1012.065,979.846 587.082,682.114 412.905,597.987 323.212,627.59 562.605,900.049 914.044,975.11 
		913.033,979.846 	"/>
</g>
<g>
</g>
<g>
</g>
<g>
</g>
<g>
</g>
<g>
</g>
<g>
</g>
<g>
</g>
<g>
</g>
<g>
</g>
<g>
</g>
<g>
</g>
</svg>
